<?xml version="1.0" encoding="UTF-8"?>
<svg version="1.1" xmlns="http://www.w3.org/2000/svg" width="500" height="500">
<path d="M0 0 C165 0 330 0 500 0 C500 165 500 330 500 500 C335 500 170 500 0 500 C0 335 0 170 0 0 Z " fill="#F4F4EE" transform="translate(0,0)"/>
<path d="M0 0 C10.05859375 -0.09765625 10.05859375 -0.09765625 13 0 C14 1 14 1 14.11352539 2.85766602 C14.10828857 3.64842529 14.10305176 4.43918457 14.09765625 5.25390625 C14.09443359 6.10791016 14.09121094 6.96191406 14.08789062 7.84179688 C14.07532227 9.18854492 14.07532227 9.18854492 14.0625 10.5625 C14.05798828 11.46419922 14.05347656 12.36589844 14.04882812 13.29492188 C14.03700225 15.53001314 14.0205222 17.76497437 14 20 C14.85549438 19.99214478 14.85549438 19.99214478 15.72827148 19.98413086 C18.29800323 19.96341779 20.86771747 19.9503581 23.4375 19.9375 C24.33533203 19.92912109 25.23316406 19.92074219 26.15820312 19.91210938 C27.01220703 19.90888672 27.86621094 19.90566406 28.74609375 19.90234375 C29.53685303 19.89710693 30.3276123 19.89187012 31.14233398 19.88647461 C33 20 33 20 34 21 C34.09873816 22.99799572 34.12971799 24.99957158 34.125 27 C34.12886719 28.6396875 34.12886719 28.6396875 34.1328125 30.3125 C34 33 34 33 33 34 C31.58429877 34.08651611 30.164405 34.10704904 28.74609375 34.09765625 C27.89208984 34.09443359 27.03808594 34.09121094 26.15820312 34.08789062 C25.26037109 34.07951172 24.36253906 34.07113281 23.4375 34.0625 C22.53580078 34.05798828 21.63410156 34.05347656 20.70507812 34.04882812 C18.46998686 34.03700225 16.23502563 34.0205222 14 34 C14.00523682 34.57032959 14.01047363 35.14065918 14.01586914 35.72827148 C14.03658221 38.29800323 14.0496419 40.86771747 14.0625 43.4375 C14.07087891 44.33533203 14.07925781 45.23316406 14.08789062 46.15820312 C14.09111328 47.01220703 14.09433594 47.86621094 14.09765625 48.74609375 C14.10289307 49.53685303 14.10812988 50.3276123 14.11352539 51.14233398 C14 53 14 53 13 54 C8.66469082 54.14393457 4.33842269 54.04212061 0 54 C0 47.4 0 40.8 0 34 C-6.6 34 -13.2 34 -20 34 C-20 29.38 -20 24.76 -20 20 C-13.4 20 -6.8 20 0 20 C0 13.4 0 6.8 0 0 Z " fill="#E41805" transform="translate(380,235)"/>
<path d="M0 0 C20 0 20 0 26 4 C27.5955739 7.19114781 27.38584417 10.52740245 27 14 C25.5 17.5 25.5 17.5 24 20 C24.66 20.45375 25.32 20.9075 26 21.375 C28.64724657 24.84951112 28.62754995 27.30402358 28.45703125 31.5859375 C27.75294146 35.30497589 26.02983861 36.86534098 23 39 C15.55521413 40.86119647 7.67390962 40 0 40 C0 26.8 0 13.6 0 0 Z " fill="#0E54B0" transform="translate(230,241)"/>
<path d="M0 0 C19 0 19 0 27 4 C29.97567717 8.46351575 29.50042344 12.76422642 29 18 C26.89361702 23.55319149 26.89361702 23.55319149 24 25 C25.03001479 28.51921721 26.26556594 31.60478707 28.125 34.75 C30 38 30 38 30 40 C27.36 40 24.72 40 22 40 C20.99491199 38.21118264 19.99607264 36.41885304 19 34.625 C18.443125 33.62726563 17.88625 32.62953125 17.3125 31.6015625 C16 29 16 29 16 27 C13.36 27 10.72 27 8 27 C8 31.29 8 35.58 8 40 C5.36 40 2.72 40 0 40 C0 26.8 0 13.6 0 0 Z " fill="#0C52B0" transform="translate(273,241)"/>
<path d="M0 0 C3.96436076 1.98218038 4.97829585 2.9142998 7.453125 6.3515625 C8.071875 7.20234375 8.690625 8.053125 9.328125 8.9296875 C9.96234375 9.81914062 10.5965625 10.70859375 11.25 11.625 C11.8996875 12.5221875 12.549375 13.419375 13.21875 14.34375 C14.8200059 16.5572508 16.41334601 18.77602097 18 21 C21.56725422 19.54797269 23.18247616 17.77482621 25.3828125 14.6484375 C25.99253906 13.79765625 26.60226563 12.946875 27.23046875 12.0703125 C27.85566406 11.18085938 28.48085937 10.29140625 29.125 9.375 C30.37169272 7.60779403 31.62400114 5.84453172 32.8828125 4.0859375 C33.70869873 2.9110376 33.70869873 2.9110376 34.55126953 1.71240234 C35.26839111 0.86476318 35.26839111 0.86476318 36 0 C36.66 0 37.32 0 38 0 C38 13.53 38 27.06 38 41 C35.69 41 33.38 41 31 41 C30.505 31.1 30.505 31.1 30 21 C26.79210618 25.27312226 26.79210618 25.27312226 23.59814453 29.55664062 C22.44517489 31.07416916 21.224033 32.53918685 20 34 C19.34 34 18.68 34 18 34 C16.20896031 31.86249689 14.53426528 29.73499372 12.875 27.5 C11.26625 25.355 9.6575 23.21 8 21 C7.67 27.6 7.34 34.2 7 41 C4.69 41 2.38 41 0 41 C0 27.47 0 13.94 0 0 Z " fill="#064EAE" transform="translate(176,240)"/>
<path d="M0 0 C7.92 0 15.84 0 24 0 C24 1.98 24 3.96 24 6 C23 7 23 7 19.62109375 7.09765625 C18.22652923 7.09098369 16.83198257 7.07902532 15.4375 7.0625 C14.72658203 7.05798828 14.01566406 7.05347656 13.28320312 7.04882812 C11.52209987 7.03700864 9.76103964 7.01907263 8 7 C8 11.29 8 15.58 8 20 C11.1865625 19.9690625 11.1865625 19.9690625 14.4375 19.9375 C16.62499611 19.91626217 18.81360547 19.92741054 21 20 C22 21 22 21 22 27 C17.38 27 12.76 27 8 27 C8 28.98 8 30.96 8 33 C9.60681641 32.98259766 9.60681641 32.98259766 11.24609375 32.96484375 C12.64322743 32.95546701 14.04036299 32.94636669 15.4375 32.9375 C16.14455078 32.92912109 16.85160156 32.92074219 17.58007812 32.91210938 C19.38693559 32.90346412 21.19387603 32.94779989 23 33 C24 34 24 34 24 40 C16.08 40 8.16 40 0 40 C0 26.8 0 13.6 0 0 Z " fill="#1156B1" transform="translate(317,241)"/>
<path d="M0 0 C7.59 0 15.18 0 23 0 C23 1.98 23 3.96 23 6 C17.72 6 12.44 6 7 6 C7 10.95 7 15.9 7 21 C11.62 21 16.24 21 21 21 C21 22.98 21 24.96 21 27 C16.38 27 11.76 27 7 27 C7 29.31 7 31.62 7 34 C12.28 34 17.56 34 23 34 C23 35.98 23 37.96 23 40 C15.41 40 7.82 40 0 40 C0 26.8 0 13.6 0 0 Z " fill="#014AAD" transform="translate(138,241)"/>
<path d="M0 0 C2.64 0 5.28 0 8 0 C8 11.22 8 22.44 8 34 C12.29 34 16.58 34 21 34 C21 35.98 21 37.96 21 40 C14.07 40 7.14 40 0 40 C0 26.8 0 13.6 0 0 Z " fill="#1055B1" transform="translate(104,241)"/>
<path d="M0 0 C10.4893259 -0.3702115 10.4893259 -0.3702115 12.83203125 1.328125 C14.65454876 3.93694605 14.37891308 5.90554322 14 9 C12.83203125 11.17578125 12.83203125 11.17578125 11 13 C7.27101421 13.53965062 3.78628294 13.17817802 0 13 C0 8.71 0 4.42 0 0 Z " fill="#F3F3EE" transform="translate(281,248)"/>
<path d="M0 0 C1.79133978 -0.05391993 3.58313899 -0.09275571 5.375 -0.125 C6.37273437 -0.14820313 7.37046875 -0.17140625 8.3984375 -0.1953125 C11 0 11 0 13 2 C13.25 5 13.25 5 13 8 C11 10 11 10 8.3984375 10.1953125 C7.40070313 10.17210937 6.40296875 10.14890625 5.375 10.125 C3.87066406 10.09792969 3.87066406 10.09792969 2.3359375 10.0703125 C1.56507813 10.04710937 0.79421875 10.02390625 0 10 C0 6.7 0 3.4 0 0 Z " fill="#F3F3EE" transform="translate(238,264)"/>
<path d="M0 0 C1.81242052 -0.02687279 3.62495233 -0.04633715 5.4375 -0.0625 C6.44683594 -0.07410156 7.45617187 -0.08570313 8.49609375 -0.09765625 C11 0 11 0 12 1 C12.25 4.4375 12.25 4.4375 12 8 C7.7975546 10.80163026 4.99895065 10.14489712 0 10 C0 6.7 0 3.4 0 0 Z " fill="#EBEEEC" transform="translate(238,248)"/>
</svg>
