<?xml version="1.0" standalone="no"?>
<!DOCTYPE svg PUBLIC "-//W3C//DTD SVG 20010904//EN"
 "http://www.w3.org/TR/2001/REC-SVG-20010904/DTD/svg10.dtd">
<svg version="1.0" xmlns="http://www.w3.org/2000/svg"
 width="149.000000pt" height="129.000000pt" viewBox="0 0 149.000000 129.000000"
 preserveAspectRatio="xMidYMid meet">
<metadata>
Created by potrace 1.16, written by Peter Selinger 2001-2019
</metadata>
<g transform="translate(0.000000,129.000000) scale(0.100000,-0.100000)"
fill="#000000" stroke="none">
<path d="M302 1264 c-29 -7 -67 -21 -84 -30 -54 -28 -129 -106 -161 -169 -30
-57 -32 -66 -32 -170 0 -174 -5 -167 386 -560 l329 -330 333 335 c357 358 367
372 390 492 13 72 -2 168 -39 240 -71 141 -250 229 -405 200 -85 -16 -141 -45
-213 -112 l-61 -58 -55 50 c-72 65 -121 93 -195 112 -72 19 -123 19 -193 0z
m224 -45 c35 -13 82 -44 126 -83 39 -33 76 -65 84 -71 9 -7 31 8 83 58 97 94
140 112 266 112 95 0 103 -2 163 -34 67 -37 115 -87 153 -161 34 -68 38 -195
9 -275 -21 -56 -44 -82 -346 -385 l-324 -325 -310 310 c-367 366 -375 377
-375 530 0 71 5 100 22 137 25 55 103 142 148 166 90 47 209 55 301 21z"/>
<path d="M650 920 c-16 -16 -20 -33 -20 -95 l0 -75 -73 0 c-97 0 -107 -11
-107 -108 0 -94 9 -102 106 -102 l74 0 0 -75 c0 -101 14 -115 108 -115 101 0
112 11 112 111 l0 79 78 0 c47 0 83 5 90 12 15 15 16 152 2 179 -9 16 -22 19
-90 19 l-80 0 0 75 c0 101 -13 115 -110 115 -57 0 -74 -4 -90 -20z"/>
</g>
</svg>
